<svg width="314" height="314" viewBox="0 0 314 314" fill="none" xmlns="http://www.w3.org/2000/svg">
<path fill-rule="evenodd" clip-rule="evenodd" d="M157 0C164.813 0 172.493 0.57072 180 1.67275V6H200.136C209.475 8.66288 218.459 12.1688 227 16.4303V21H235.493C249.942 29.3572 262.936 39.9509 274 52.3077V58H278.859C300.83 85.0111 314 119.468 314 157C314 194.532 300.83 228.989 278.859 256H274V261.692C262.936 274.049 249.942 284.643 235.493 293H227V297.57C218.459 301.831 209.475 305.337 200.136 308H180V312.327C172.493 313.429 164.813 314 157 314C131.847 314 108.075 308.085 87 297.57V292H76.8025C63.4647 284.06 51.4034 274.199 41 262.798V255H34.3345C12.8482 228.141 0 194.071 0 157C0 119.929 12.8482 85.8591 34.3345 59H41V51.2015C51.4034 39.8015 63.4647 29.9405 76.8025 22H87V16.4303C108.075 5.91514 131.847 0 157 0ZM158.5 160H139V158.5H158.5V138H160V158.5H179V160H160V178H158.5V160ZM110 118H114H123V122H114V196H123V200H114H110V196V122V118ZM196 196H205V122H196V118H205H209V122V196V200H205H196V196ZM229 90H233V102H229V90ZM226 86H217V90H226V86ZM86 100H90V102H86V100ZM90 217H86V219H90V217ZM86 223H90V225H86V223ZM91 95H86V96H91V95ZM86 89H100V85H101V89V90H100H86V89ZM86 229H100H101V230V234H100V230H86V229ZM217 229H226V233H217V229ZM233 217H229V229H233V217Z" fill="black"/>
</svg>
