{
    "asset" : {
        "generator" : "Khronos glTF Blender I/O v3.4.50",
        "version" : "2.0"
    },
    "scene" : 0,
    "scenes" : [
        {
            "name" : "Scene",
            "nodes" : [
                0,
                1,
                2,
                3,
                4
            ]
        }
    ],
    "nodes" : [
        {
            "mesh" : 0,
            "name" : "capTop",
            "rotation" : [
                -1,
                0,
                0,
                1.6292068494294654e-07
            ],
            "scale" : [
                -156.0021514892578,
                -156.0021514892578,
                -156.0021514892578
            ]
        },
        {
            "mesh" : 1,
            "name" : "capBottom",
            "rotation" : [
                -1,
                0,
                0,
                1.6292068494294654e-07
            ],
            "scale" : [
                -156.0021514892578,
                -156.0021514892578,
                -156.0021514892578
            ]
        },
        {
            "mesh" : 2,
            "name" : "backLabel",
            "rotation" : [
                -1,
                0,
                0,
                1.6292068494294654e-07
            ],
            "scale" : [
                -156.0021514892578,
                -156.0021514892578,
                -156.0021514892578
            ]
        },
        {
            "mesh" : 3,
            "name" : "frontLabel",
            "rotation" : [
                -1,
                0,
                0,
                1.6292068494294654e-07
            ],
            "scale" : [
                -156.0021514892578,
                -156.0021514892578,
                -156.0021514892578
            ]
        },
        {
            "mesh" : 4,
            "name" : "bottle",
            "rotation" : [
                -1,
                0,
                0,
                1.6292068494294654e-07
            ],
            "scale" : [
                -156.0021514892578,
                -156.0021514892578,
                -156.0021514892578
            ]
        }
    ],
    "materials" : [
        {
            "doubleSided" : true,
            "name" : "reflective material",
            "pbrMetallicRoughness" : {
                "baseColorFactor" : [
                    0.1918255090713501,
                    0.22696267068386078,
                    0.19186373054981232,
                    1
                ],
                "metallicFactor" : 0,
                "roughnessFactor" : 0
            }
        },
        {
            "doubleSided" : true,
            "name" : "Default OBJ",
            "pbrMetallicRoughness" : {
                "baseColorTexture" : {
                    "index" : 0
                },
                "metallicFactor" : 0,
                "roughnessFactor" : 0
            }
        }
    ],
    "meshes" : [
        {
            "name" : "capTop",
            "primitives" : [
                {
                    "attributes" : {
                        "POSITION" : 0,
                        "NORMAL" : 1
                    },
                    "indices" : 2,
                    "material" : 0
                }
            ]
        },
        {
            "name" : "capBottom",
            "primitives" : [
                {
                    "attributes" : {
                        "POSITION" : 3,
                        "NORMAL" : 4
                    },
                    "indices" : 5,
                    "material" : 0
                }
            ]
        },
        {
            "name" : "backLabel",
            "primitives" : [
                {
                    "attributes" : {
                        "POSITION" : 6,
                        "TEXCOORD_0" : 7,
                        "NORMAL" : 8
                    },
                    "indices" : 9,
                    "material" : 0
                }
            ]
        },
        {
            "name" : "frontLabel",
            "primitives" : [
                {
                    "attributes" : {
                        "POSITION" : 10,
                        "TEXCOORD_0" : 11,
                        "NORMAL" : 12
                    },
                    "indices" : 13,
                    "material" : 1
                }
            ]
        },
        {
            "name" : "bottle",
            "primitives" : [
                {
                    "attributes" : {
                        "POSITION" : 14,
                        "NORMAL" : 15
                    },
                    "indices" : 16,
                    "material" : 0
                }
            ]
        }
    ],
    "textures" : [
        {
            "sampler" : 0,
            "source" : 0
        }
    ],
    "images" : [
        {
            "bufferView" : 14,
            "mimeType" : "image/png",
            "name" : "devs_care"
        }
    ],
    "accessors" : [
        {
            "bufferView" : 0,
            "componentType" : 5126,
            "count" : 1173,
            "max" : [
                0.026812998577952385,
                0.15502230823040009,
                0.009771103039383888
            ],
            "min" : [
                -0.01709538884460926,
                0.15000179409980774,
                -0.009740414097905159
            ],
            "type" : "VEC3"
        },
        {
            "bufferView" : 1,
            "componentType" : 5126,
            "count" : 1173,
            "type" : "VEC3"
        },
        {
            "bufferView" : 2,
            "componentType" : 5123,
            "count" : 7026,
            "type" : "SCALAR"
        },
        {
            "bufferView" : 3,
            "componentType" : 5126,
            "count" : 1587,
            "max" : [
                0.027021195739507675,
                0.15000179409980774,
                0.010092594660818577
            ],
            "min" : [
                -0.02096041478216648,
                0.1306295245885849,
                -0.009973385371267796
            ],
            "type" : "VEC3"
        },
        {
            "bufferView" : 4,
            "componentType" : 5126,
            "count" : 1587,
            "type" : "VEC3"
        },
        {
            "bufferView" : 5,
            "componentType" : 5123,
            "count" : 9510,
            "type" : "SCALAR"
        },
        {
            "bufferView" : 6,
            "componentType" : 5126,
            "count" : 2984,
            "max" : [
                0.021250862628221512,
                0.1225321814417839,
                -0.0062691811472177505
            ],
            "min" : [
                -0.02463044784963131,
                0.011976687237620354,
                -0.011044435203075409
            ],
            "type" : "VEC3"
        },
        {
            "bufferView" : 7,
            "componentType" : 5126,
            "count" : 2984,
            "type" : "VEC2"
        },
        {
            "bufferView" : 8,
            "componentType" : 5126,
            "count" : 2984,
            "type" : "VEC3"
        },
        {
            "bufferView" : 9,
            "componentType" : 5123,
            "count" : 12750,
            "type" : "SCALAR"
        },
        {
            "bufferView" : 10,
            "componentType" : 5126,
            "count" : 3879,
            "max" : [
                0.021250862628221512,
                0.12253257632255554,
                0.011028112843632698
            ],
            "min" : [
                -0.024629788473248482,
                0.011976826004683971,
                0.006160421762615442
            ],
            "type" : "VEC3"
        },
        {
            "bufferView" : 11,
            "componentType" : 5126,
            "count" : 3879,
            "type" : "VEC2"
        },
        {
            "bufferView" : 12,
            "componentType" : 5126,
            "count" : 3879,
            "type" : "VEC3"
        },
        {
            "bufferView" : 13,
            "componentType" : 5123,
            "count" : 18090,
            "type" : "SCALAR"
        },
        {
            "bufferView" : 15,
            "componentType" : 5126,
            "count" : 4417,
            "max" : [
                0.030276978388428688,
                0.14428308606147766,
                0.010805752128362656
            ],
            "min" : [
                -0.03055926039814949,
                0.0036147688515484333,
                -0.010823572985827923
            ],
            "type" : "VEC3"
        },
        {
            "bufferView" : 16,
            "componentType" : 5126,
            "count" : 4417,
            "type" : "VEC3"
        },
        {
            "bufferView" : 17,
            "componentType" : 5123,
            "count" : 24762,
            "type" : "SCALAR"
        }
    ],
    "bufferViews" : [
        {
            "buffer" : 0,
            "byteLength" : 14076,
            "byteOffset" : 0,
            "target" : 34962
        },
        {
            "buffer" : 0,
            "byteLength" : 14076,
            "byteOffset" : 14076,
            "target" : 34962
        },
        {
            "buffer" : 0,
            "byteLength" : 14052,
            "byteOffset" : 28152,
            "target" : 34963
        },
        {
            "buffer" : 0,
            "byteLength" : 19044,
            "byteOffset" : 42204,
            "target" : 34962
        },
        {
            "buffer" : 0,
            "byteLength" : 19044,
            "byteOffset" : 61248,
            "target" : 34962
        },
        {
            "buffer" : 0,
            "byteLength" : 19020,
            "byteOffset" : 80292,
            "target" : 34963
        },
        {
            "buffer" : 0,
            "byteLength" : 35808,
            "byteOffset" : 99312,
            "target" : 34962
        },
        {
            "buffer" : 0,
            "byteLength" : 23872,
            "byteOffset" : 135120,
            "target" : 34962
        },
        {
            "buffer" : 0,
            "byteLength" : 35808,
            "byteOffset" : 158992,
            "target" : 34962
        },
        {
            "buffer" : 0,
            "byteLength" : 25500,
            "byteOffset" : 194800,
            "target" : 34963
        },
        {
            "buffer" : 0,
            "byteLength" : 46548,
            "byteOffset" : 220300,
            "target" : 34962
        },
        {
            "buffer" : 0,
            "byteLength" : 31032,
            "byteOffset" : 266848,
            "target" : 34962
        },
        {
            "buffer" : 0,
            "byteLength" : 46548,
            "byteOffset" : 297880,
            "target" : 34962
        },
        {
            "buffer" : 0,
            "byteLength" : 36180,
            "byteOffset" : 344428,
            "target" : 34963
        },
        {
            "buffer" : 0,
            "byteLength" : 303998,
            "byteOffset" : 380608
        },
        {
            "buffer" : 0,
            "byteLength" : 53004,
            "byteOffset" : 684608,
            "target" : 34962
        },
        {
            "buffer" : 0,
            "byteLength" : 53004,
            "byteOffset" : 737612,
            "target" : 34962
        },
        {
            "buffer" : 0,
            "byteLength" : 49524,
            "byteOffset" : 790616,
            "target" : 34963
        }
    ],
    "samplers" : [
        {
            "magFilter" : 9729,
            "minFilter" : 9987
        }
    ],
    "buffers" : [
        {
            "byteLength" : 840140,
            "uri" : "data:application/octet-stream;base64,"
        }
    ]
}
