<svg xmlns="http://www.w3.org/2000/svg" viewBox="0 0 347 143" fill="none" class="sc-b313c5d3-13 gFuenY">
    <path d="M1 49.4453C1 45.027 4.58172 41.4453 9 41.4453H36.2538C39.9247 41.4453 43.1246 38.9469 44.0149 35.3856L50.9851 7.50503C51.8754 3.94369 55.0753 1.44531 58.7462 1.44531H147.048C150.581 1.44531 153.695 3.76266 154.71 7.14653L163.29 35.7441C164.305 39.128 167.419 41.4453 170.952 41.4453H338C342.418 41.4453 346 45.027 346 49.4453V133.445C346 137.864 342.418 141.445 338 141.445H9C4.58172 141.445 1 137.864 1 133.445V49.4453Z"
          fill="#F1EFED" stroke="black" stroke-width="2"></path>
</svg>